<?xml version="1.0" standalone="no"?>
<!DOCTYPE svg PUBLIC "-//W3C//DTD SVG 1.1//EN" "http://www.w3.org/Graphics/SVG/1.1/DTD/svg11.dtd" >
<svg xmlns="http://www.w3.org/2000/svg">
<metadata>Generated by IcoMoon</metadata>
<defs>
<font id="icomoon" horiz-adv-x="1024">
<font-face units-per-em="1024" ascent="960" descent="-64" />
<missing-glyph horiz-adv-x="1024" />
<glyph unicode="&#x20;" horiz-adv-x="512" d="" />
<glyph unicode="&#xe900;" glyph-name="uniE900" d="M597.7 534.1l22.2-314.8h217.5l22.2 314.8h51.3l-22.4-318.4c-1.9-26.8-24.2-47.6-51.1-47.6h-217.5c-26.9 0-49.2 20.8-51.1 47.6l-22.4 318.3h51.3zM709.2 518.2v-238.9h-51.2v238.9h51.2zM802.8 518.2v-238.9h-51.2v238.9h51.2zM470 619.4h512v-51.2h-512v51.2zM832.8 704.7v-51.2h-204.8v51.2h204.8z" />
<glyph unicode="&#xe901;" glyph-name="ai219" d="M663.007 357.6h-32.118l-12.064 12.080c40.177 44.251 64.279 104.587 64.279 168.934 0 144.831-116.608 261.438-261.439 261.438-144.787 0-261.387-116.607-261.387-261.438s116.598-261.388 261.387-261.388c64.39 0 124.726 24.094 168.994 64.28l12.012-12.081v-32.162l201.112-201.052 60.327 60.335-201.102 201.054zM421.664 357.6c-100.59 0-181.022 80.433-181.022 181.014 0 100.641 80.433 181.014 181.022 181.014 100.625 0 181.005-80.373 181.005-181.014 0-100.582-80.381-181.014-181.005-181.014z" />
<glyph unicode="&#xe902;" glyph-name="caichananquan" d="M629.3 462.7v39.1h-49.8l40 40-28.4 28.4-68.4-68.4h-21.4l-68.4 68.4-28.4-28.4 40-40h-49.8v-39.1h97.8v-39.1h-97.8v-39.1h97.8v-48.9h39.1v48.9h97.8v39.1h-97.8v39.1h97.7zM512 883.1s-216.9-146.7-440-146.7c0 0 27.5-633.1 440-723.6 412.5 90.4 440 723.6 440 723.6-223.1 0-440 146.7-440 146.7zM512 52c-364.3 101.3-400.9 645.3-400.9 645.3 206.4 6.2 400.9 136.9 400.9 136.9s194.5-130.7 400.9-136.9c0 0-36.6-544-400.9-645.3zM512 658.2c-108 0-195.6-87.6-195.6-195.6s87.6-195.5 195.6-195.5 195.6 87.6 195.6 195.6-87.6 195.5-195.6 195.5zM512 306.2c-86.4 0-156.4 70-156.4 156.4s70 156.4 156.4 156.4 156.4-70 156.4-156.4c0-86.3-70-156.4-156.4-156.4z" />
<glyph unicode="&#xe903;" glyph-name="fanhui" d="M468.1 639.7v161.6c0.9 8.1-1.3 16.4-7.5 22.7-10.9 10.8-28.4 10.8-39.3 0l-273.7-300.1c-5.8-5.7-8.3-13.4-7.9-20.9-0.4-7.5 2.1-15.1 7.9-20.9l272.2-298.4c10.2-8.7 28.8-13.6 40.8-1.6 6.2 6.2 8.9 11.4 8 19.5v164.4c180.8 0 344.4-130.2 376.8-301.6 21.9 50.2 34.1 105.6 34.1 163.9 0.1 227.2-184.1 411.4-411.4 411.4z" />
<glyph unicode="&#xe904;" d="M63.77 750.88v-604.46c0-24.891 20.179-45.070 45.070-45.070v0h806.32c24.891 0 45.070 20.179 45.070 45.070v0 603.16c0 24.891-20.179 45.070-45.070 45.070h-807.62c-24.174 0-43.77-19.596-43.77-43.77v0zM923.25 756.51c2.061-2.060 3.336-4.906 3.336-8.050s-1.275-5.99-3.336-8.050l-71-71c-2.060-2.061-4.906-3.336-8.050-3.336s-5.99 1.275-8.050 3.336v0c-2.061 2.060-3.336 4.906-3.336 8.050s1.275 5.99 3.336 8.050l71 71c2.059 2.058 4.903 3.331 8.045 3.331s5.986-1.273 8.045-3.331v0zM818.2 756.51c2.061-2.060 3.336-4.906 3.336-8.050s-1.275-5.99-3.336-8.050l-71-71c-2.060-2.061-4.906-3.336-8.050-3.336s-5.99 1.275-8.050 3.336v0c-2.061 2.060-3.336 4.906-3.336 8.050s1.275 5.99 3.336 8.050l71 71c2.059 2.058 4.903 3.331 8.045 3.331s5.986-1.273 8.045-3.331v0zM713.15 756.51c2.061-2.060 3.336-4.906 3.336-8.050s-1.275-5.99-3.336-8.050l-71-71c-2.060-2.061-4.906-3.336-8.050-3.336s-5.99 1.275-8.050 3.336v0c-2.061 2.060-3.336 4.906-3.336 8.050s1.275 5.99 3.336 8.050l71 71c2.059 2.058 4.903 3.331 8.045 3.331s5.986-1.273 8.045-3.331v0zM608.1 756.51c2.061-2.060 3.336-4.906 3.336-8.050s-1.275-5.99-3.336-8.050l-71-71c-2.060-2.061-4.906-3.336-8.050-3.336s-5.99 1.275-8.050 3.336v0c-2.061 2.060-3.336 4.906-3.336 8.050s1.275 5.99 3.336 8.050l71 71c2.059 2.055 4.901 3.326 8.040 3.326s5.981-1.271 8.040-3.326v0zM503.050 756.51c2.061-2.060 3.336-4.906 3.336-8.050s-1.275-5.99-3.336-8.050l-71-71c-2.060-2.061-4.906-3.336-8.050-3.336s-5.99 1.275-8.050 3.336v0c-2.061 2.060-3.336 4.906-3.336 8.050s1.275 5.99 3.336 8.050l71 71c2.057 2.046 4.893 3.311 8.025 3.311s5.968-1.265 8.025-3.312v0zM398 756.51c2.061-2.060 3.336-4.906 3.336-8.050s-1.275-5.99-3.336-8.050l-71-71c-2.060-2.061-4.906-3.336-8.050-3.336s-5.99 1.275-8.050 3.336v0c-2.061 2.060-3.336 4.906-3.336 8.050s1.275 5.99 3.336 8.050l71 71c2.060 2.061 4.906 3.336 8.050 3.336s5.99-1.275 8.050-3.336v0zM292.95 756.51c2.061-2.060 3.336-4.906 3.336-8.050s-1.275-5.99-3.336-8.050l-71-71c-2.060-2.061-4.906-3.336-8.050-3.336s-5.99 1.275-8.050 3.336v0c-2.061 2.060-3.336 4.906-3.336 8.050s1.275 5.99 3.336 8.050l71 71c2.058 2.052 4.898 3.321 8.035 3.321s5.977-1.269 8.035-3.322v0zM187.9 756.51c2.061-2.060 3.336-4.906 3.336-8.050s-1.275-5.99-3.336-8.050l-71-71c-2.060-2.061-4.906-3.336-8.050-3.336s-5.99 1.275-8.050 3.336v0c-2.061 2.060-3.336 4.906-3.336 8.050s1.275 5.99 3.336 8.050l71 71c2.058 2.049 4.896 3.316 8.030 3.316s5.972-1.267 8.030-3.317v0zM429.23 255.37v217.46l188.32-108.73zM937.76 612.13h-851.52v22.76h851.52z" />
<glyph unicode="&#xe905;" d="M429.23 472.83v-217.46l188.32 108.73-188.32 108.73z" />
<glyph unicode="&#xe906;" glyph-name="gerenziliao" d="M610.7 664.5c0 102.494-79.546 185.235-177.2 185.235-97.664 0-177.2-82.735-177.2-185.235s79.536-185.235 177.2-185.235c97.654 0 177.2 82.74 177.2 185.235zM72.072 202.022c0.066-0.699 0.1-1.406 0.1-2.122v-57.327c0-52.144 51.26-97.373 117.456-97.374l480.066 4.788c12.197 0.122 22.183-9.673 22.305-21.878s-9.668-22.198-21.865-22.32l-480.286-4.789c-89.66 0-161.848 63.694-161.848 141.573v57.327c0 0.882 0.052 1.752 0.152 2.607-0.1 0.855-0.152 1.724-0.152 2.605 0 126.356 122.96 230.173 289.892 263.576-63.566 40.378-105.892 113.045-105.892 195.812 0 126.557 98.963 229.5 221.5 229.5 122.527 0 221.5-102.948 221.5-229.5 0-82.668-42.233-155.264-105.677-195.671 67.684-13.442 129.123-38.624 178.327-73.413 0.523-0.37 1.025-0.758 1.506-1.163 54.542-39.39 91.212-89.188 104.238-143.995 2.825-11.886-4.494-23.817-16.347-26.65s-23.75 4.506-26.576 16.392c-10.537 44.338-41.553 86.015-89.157 119.818-0.305 0.217-0.54 0.392-0.771 0.571l0.051-0.038c-64.773 45.261-154.386 72.61-251.354 75.219-4.71-0.364-10.2-0.571-15.739-0.571-5.456 0-10.864 0.201-16.219 0.596l0.716-0.042c-193.682-5.41-345.711-108.768-345.711-230.44 0-1.050-0.074-2.081-0.215-3.091zM789.557 128.723c56.219 56.348 112.417 112.706 168.627 169.053 20.155 20.222 51.426-11.147 31.271-31.355-61.687-61.836-123.36-123.687-185.046-185.538-11.555-11.585-26.748-6.239-33.832 4.244-37.016 37.020-74.033 74.053-111.063 111.086-20.173 20.159 11.119 51.438 31.277 31.278 32.925-32.927 65.85-65.844 98.766-98.768z" />
<glyph unicode="&#xe907;" glyph-name="kaiqihuancun" d="M440.064 198.144c-73.45 59.017-120.064 148.836-120.064 249.544 0 0.11 0 0.219 0 0.329v-0.017c0 0.093 0 0.203 0 0.312 0 100.707 46.614 190.527 119.442 249.060l0.622 0.483c-16.753 3.905-35.99 6.144-55.749 6.144-141.385 0-256-114.615-256-256s114.615-256 256-256c19.759 0 38.996 2.239 57.47 6.476l-1.721-0.332zM512 741.376c37.64 16.825 81.571 26.624 127.791 26.624 176.731 0 320-143.269 320-320s-143.269-320-320-320c-46.22 0-90.151 9.799-129.829 27.433l2.039-0.809c-37.64-16.825-81.571-26.624-127.791-26.624-176.731 0-320 143.269-320 320s143.269 320 320 320c46.22 0 90.151-9.799 129.829-27.433l-2.039 0.809zM575.168 364.416l-105.408 97.984-43.52-46.848 150.592-139.968 277.76 277.76-45.248 45.312-234.176-234.24z" />
<glyph unicode="&#xe908;" glyph-name="shezhi-youjiantou" d="M403.893 208c-8.192 0-16.385 3.199-22.52 9.558-12.014 12.453-11.658 32.263 0.785 44.267l192.878 186.173-192.878 186.172c-12.443 12.004-12.799 31.813-0.785 44.266 11.983 12.432 31.813 12.799 44.256 0.774l216.213-208.693c5.903-5.695 9.569-13.676 9.569-22.512 0-0.003 0-0.006 0-0.009v0c0-8.498-3.454-16.63-9.569-22.52l-216.213-208.693c-6.074-5.869-13.91-8.783-21.736-8.783z" />
<glyph unicode="&#xe909;" glyph-name="lishi" d="M252.8 739.2h22.4c19.2 0 33.6 14.4 33.6 32v132.8c0 19.2-14.4 33.6-33.6 33.6h-22.4c-19.2 0-33.6-14.4-33.6-33.6v-132.8c0-17.6 14.4-32 33.6-32zM913.6 827.2h-67.2v-56c0-41.6-33.6-78.4-78.4-78.4h-22.4c-41.6 0-78.4 33.6-78.4 78.4v56h-312v-56c0-41.6-33.6-78.4-78.4-78.4h-22.4c-41.6 0-78.4 33.6-78.4 78.4v56h-65.6c-38.4 0-67.2-28.8-67.2-67.2v-734.4c0-38.4 28.8-67.2 67.2-67.2h801.6c38.4 0 67.2 28.8 68.8 67.2v734.4c0 36.8-28.8 67.2-67.2 67.2zM110.4 25.6v579.2h801.6s0-579.2 1.6-579.2h-803.2zM744 739.2h22.4c19.2 0 33.6 14.4 33.6 32v132.8c0 19.2-14.4 33.6-33.6 33.6h-22.4c-19.2 0-33.6-14.4-33.6-33.6v-132.8c0-17.6 14.4-32 33.6-32zM486.4 465.6v-164.8l81.6-89.6 36.8 33.6-68.8 73.6v147.2zM756.8 369.6c-14.4 62.4-54.4 116.8-110.4 153.6-59.2 35.2-126.4 46.4-188.8 32-38.4-8-75.2-27.2-105.6-52.8-14.4-12.8-27.2-25.6-38.4-40v25.6h-49.6v-128h129.6v48h-56c27.2 49.6 73.6 86.4 129.6 99.2 52.8 12.8 105.6 1.6 150.4-25.6 46.4-27.2 78.4-72 88-121.6 11.2-49.6 4.8-102.4-25.6-148.8-27.2-44.8-72-75.2-123.2-88-52.8-12.8-105.6-1.6-150.4 25.6-46.4 27.2-78.4 72-88 121.6l-48-8c14.4-62.4 54.4-116.8 110.4-153.6 40-25.6 86.4-38.4 132.8-38.4 19.2 0 38.4 1.6 56 6.4 65.6 14.4 120 54.4 155.2 108.8s46.4 120 32 184z" />
<glyph unicode="&#xe90a;" glyph-name="xihuan" horiz-adv-x="1031" d="M515.353 2.172c-21.543 0-36.872 14.253-40.763 18.267-17.622 17.356-347.234 342.207-392.41 391.14-52.742 52.712-82.18 123.762-82.18 199.328s29.438 146.616 82.887 200.055c53.418 53.429 124.469 82.866 200.065 82.866 75.556 0 146.596-29.428 200.045-82.866 11.908-11.919 22.731-24.943 32.356-38.95 9.625 14.018 20.448 27.032 32.346 38.95 53.439 53.439 124.489 82.866 200.065 82.866 75.556 0 146.606-29.428 200.065-82.866 53.429-53.459 82.856-124.499 82.856-200.055 0-75.566-29.428-146.606-82.856-200.065-44.5-48.206-374.204-373.16-391.714-390.413-3.87-4.004-19.219-18.257-40.763-18.257zM282.952 842.632c-61.917 0-120.107-24.103-163.859-67.866-43.783-43.773-67.897-101.973-67.897-163.859 0-61.896 24.113-120.096 67.886-163.869 45.329-49.056 388.253-386.993 391.703-390.393 0.256-0.246 0.512-0.512 0.747-0.768 0.829-0.788 2.724-2.027 3.819-2.427 1.106 0.399 3.051 1.679 4.167 2.775 3.86 3.819 346.773 341.756 391.406 390.085 44.469 44.52 68.562 102.71 68.562 164.596s-24.103 120.076-67.866 163.849c-43.763 43.763-101.963 67.866-163.859 67.866s-120.096-24.103-163.869-67.866c-18.461-18.482-33.749-40.322-45.421-64.917-4.239-8.929-13.239-14.632-23.131-14.632v0c-9.891 0-18.891 5.703-23.131 14.632-11.663 24.574-26.94 46.425-45.442 64.917-43.752 43.773-101.932 67.876-163.818 67.876z" />
<glyph unicode="&#xe90b;" glyph-name="rili" d="M736 896c17.673 0 32-14.327 32-32v0-31.936l64-0.064c70.692 0 128-57.308 128-128v0-576c0-70.692-57.308-128-128-128v0h-640c-70.692 0-128 57.308-128 128v0 576c0 70.692 57.308 128 128 128v0l64 0.064v31.936c0 17.673 14.327 32 32 32s32-14.327 32-32v0-31.936h384v31.936c0 17.673 14.327 32 32 32v0zM896 512h-768v-384c0.004-32.704 24.538-59.676 56.205-63.522l0.307-0.030 7.488-0.448h640c32.704 0.004 59.676 24.538 63.522 56.205l0.030 0.307 0.448 7.488v384zM256 768.064l-64-0.064c-32.704-0.004-59.676-24.538-63.522-56.205l-0.030-0.307-0.448-7.488v-128h768v128c0 35.346-28.654 64-64 64v0l-64 0.064v-32.064c0-17.673-14.327-32-32-32s-32 14.327-32 32v0 32.064h-384v-32.064c0-17.673-14.327-32-32-32s-32 14.327-32 32v0 32.064z" />
<glyph unicode="&#xe90c;" glyph-name="shanchu" d="M512 538.496l274.752 274.752 90.496-90.496-274.752-274.752 274.752-274.752-90.496-90.496-274.752 274.752-274.752-274.752-90.496 90.496 274.752 274.752-274.752 274.752 90.496 90.496z" />
<glyph unicode="&#xe90d;" glyph-name="shangchuan" d="M540.2 531.8c-3.7 4.9-8.6 8.8-14.5 11.2-13.1 5.4-28.1 2.5-38.1-7.5l-128.5-128c-13.7-13.6-13.7-35.8-0.1-49.5s35.8-13.7 49.5-0.1l68.7 68.5-0.4-393.1c0-19.3 15.6-35 35-35 19.3 0 35 15.6 35 35l0.4 392.9 67.4-67.1c6.8-6.8 15.8-10.2 24.7-10.2 9 0 18 3.4 24.8 10.3 13.6 13.7 13.6 35.9-0.1 49.5l-123.8 123.1zM905.9 599.2c-33.3 33.3-75.6 54.4-121.4 61-7.1 61.1-34.3 117.7-78.5 161.9-51.9 51.8-120.7 80.4-194 80.4s-142.1-28.5-193.9-80.3c-44.2-44.2-71.4-100.7-78.5-161.9-45.8-6.6-88.1-27.7-121.4-61-40.8-40.8-63.3-95.1-63.3-152.8s22.5-112 63.3-152.8c40.8-40.8 95.1-63.3 152.8-63.3 19.3 0 35 15.7 35 35s-15.7 35-35 35c-80.6 0-146.1 65.5-146.1 146.1s65.5 146.1 146.1 146.1h1.5c9.4-0.1 18.4 3.6 25 10.2s10.4 15.6 10.3 25v0.7c0.1 112.6 91.7 204.1 204.3 204.1s204.2-91.5 204.3-204.1v-0.9c0-9.3 3.7-18.3 10.4-24.9 6.6-6.5 15.4-10.1 24.6-10.1h1.7c80.6 0 146.1-65.5 146.1-146.1s-65.5-146.1-146.1-146.1c-19.3 0-35-15.7-35-35s15.7-35 35-35c57.7 0 112 22.5 152.8 63.3s63.3 95.1 63.3 152.8c0 57.7-22.5 111.9-63.3 152.7z" />
<glyph unicode="&#xe90e;" glyph-name="shoucang" d="M546.176 45.158c-10.496-8.55-20.173-15.104-34.688-15.027-13.261 0.077-25.805 8.013-33.792 14.618-81.766 67.942-303.309 222.336-367.667 338.739-81.28 147.174-61.594 380.262 125.542 414.874 184.269 34.074 279.066-133.197 279.066-133.197s103.782 175.718 279.91 130.202c184.269-47.565 199.322-259.328 116.48-405.606-65.331-115.354-281.882-277.222-364.851-344.602zM854.374 595.84h-87.987v87.987c0 27.29-22.118 49.408-49.408 49.408s-49.382-22.118-49.382-49.408v-87.987h-88.013c-27.264 0-49.408-22.093-49.408-49.382 0-27.315 22.118-49.408 49.408-49.408h88.013v-87.987c0-27.264 22.093-49.434 49.382-49.434s49.408 22.144 49.408 49.434v87.987h87.987c27.264 0 49.408 22.067 49.408 49.408 0 27.29-22.144 49.382-49.408 49.382z" />
<glyph unicode="&#xe90f;" d="M840.069 532.122h-72.904v118.047c0 131.302-112.169 238.152-250.045 238.152s-250.040-106.849-250.040-238.152v-118.047h-72.909c-44.977-0.020-81.441-36.441-81.531-81.399v-361.635c0.090-44.967 36.554-81.388 81.529-81.408h645.9c44.977 0.020 81.441 36.441 81.531 81.399v361.635c-0.090 44.967-36.554 81.388-81.529 81.408h-0.002zM323.507 650.168c0 100.239 86.856 181.791 193.613 181.791s193.613-81.556 193.613-181.791v-118.047h-387.226v118.047zM865.172 89.088c0-13.856-11.232-25.088-25.088-25.088v0h-645.914c-13.856 0-25.088 11.232-25.088 25.088v0 361.626c0 13.856 11.232 25.088 25.088 25.088v0h645.898c13.856 0 25.088-11.232 25.088-25.088v-361.626z" />
<glyph unicode="&#xe910;" d="M576.553 324.357c-0.872 28.726-24.368 51.682-53.225 51.682s-52.353-22.955-53.223-51.602l-0.002-0.080c0.086-18.423 9.828-34.551 24.422-43.593l0.22-0.127v-82.739c0.371-15.502 13.026-27.927 28.582-27.927s28.212 12.425 28.582 27.893l0.001 0.034v82.739c14.814 9.169 24.557 25.297 24.643 43.707v0.013z" />
<glyph unicode="&#xe911;" glyph-name="xiaoniao2" d="M817.172 671.027c1.648 0.865 3.674 1.762 5.76 2.537l0.384 0.125c9.318 3.174 135.066-5.12 132.198 4.71-8.294 27.955-89.805 137.626-140.39 149.299-32.666 7.68-72.806 10.24-102.707-7.782-33.075-19.866-33.997-55.398-42.086-88.986-12.902-53.965-32.256-77.824-57.651-127.283-23.757-46.285-162.109-156.774-195.359-169.882-61.901-24.474-132.096-26.726-192.42-48.128 8.356 2.97-93.952-22.016-93.952-22.016s117.576-43.52 117.576-48.742-179.937-29.184-179.937-29.184l31.805-46.899c73.585 0.512 147.364 19.661 220.948 18.842 47.104-0.512 109.906 8.806 155.177-5.939 31.642-10.445 65.116-14.746 78.899-24.371s13.128-90.419 14.459-99.635-52.787-53.043-41.759-60.211 235.090-6.246 236.012 0-39.731 39.322-56.627 46.797-96.256 8.397-95.642 13.414c3.277 24.269 0.205-4.71 8.909 66.97s62.874 51.2 112.742 89.293c42.906 32.973 97.485 78.541 107.11 136.294 1.967 9.616 3.093 20.668 3.093 31.983 0 22.963-4.637 44.844-13.026 64.756l0.41-1.097c-7.27 16.179-25.19 34.611-30.72 51.507-12.083 36.25-25.907 81.92 16.794 103.629z" />
<glyph unicode="&#xe912;" d="M215.706 899.172c-34.488 0-61.546-38.454-61.546-38.454s-25.524 38.454-61.56 38.454c-35.052 0-63.678-28.912-65.55-63.914-1.056-19.774 5.32-34.824 14.302-48.456 17.948-27.234 96.418-92.798 112.926-92.798 16.85 0 94.618 65.324 112.686 92.798 9 13.692 15.358 28.68 14.298 48.456-1.876 35.002-30.5 63.914-65.556 63.914z" />
<glyph unicode="&#xe913;" d="M154.274 667.064c-7.106 0-21.886 0-73.096 42.37-22.434 18.566-50.59 44.744-62.318 62.542-8.8 13.352-20.314 34.594-18.708 64.714 2.68 50.142 43.288 89.416 92.448 89.416 26.134 0 47.286-12.854 61.868-25.652 14.76 12.744 35.948 25.652 61.24 25.652 49.158 0 89.77-39.274 92.45-89.412 1.614-30.046-9.892-51.31-18.684-64.69-11.828-17.984-39.836-44.146-62.108-62.632-50.956-42.308-65.908-42.308-73.092-42.308zM92.6 872.232c-20.178 0-37.518-17.232-38.652-38.416-0.6-11.286 2.266-20.616 9.896-32.196 13.040-19.786 69.478-67.494 90.51-79.14 21.060 11.514 76.602 58.586 90.1 79.118 7.64 11.62 10.508 20.958 9.908 32.214-1.134 21.184-18.474 38.418-38.656 38.418-15.34 0-33.562-18.554-39.518-27.016-4.938-6.953-12.96-11.435-22.030-11.436v0l-0.366 0.002c-9.187 0.129-17.247 4.837-22.015 11.941l-0.061 0.097c-4.6 6.762-21.856 26.414-39.116 26.414zM523.958-30.108c-1.748 0-3.502 0.186-5.25 0.536-1.923 0.392-3.609 0.922-5.215 1.603l0.177-0.067c-1.793 0.756-3.325 1.586-4.765 2.543l0.105-0.065c-1.533 1.027-2.872 2.126-4.095 3.341l0.001-0.001c-1.214 1.222-2.314 2.56-3.279 3.997l-0.061 0.097c-0.889 1.334-1.719 2.866-2.407 4.472l-0.071 0.188c-1.294 3.017-2.046 6.528-2.046 10.214 0 0.027 0 0.053 0 0.080v-0.004c0 1.776 0.162 3.528 0.51 5.28 0.35 1.724 0.862 3.422 1.536 5.034 0.674 1.618 1.508 3.182 2.478 4.66 1.027 1.533 2.126 2.872 3.341 4.095l-0.001-0.001c6.276 6.25 15.568 9.108 24.322 7.354 1.726-0.35 3.424-0.862 5.038-1.536 1.618-0.674 3.182-1.508 4.66-2.478 1.53-1.037 2.868-2.136 4.098-3.344l-0.004 0.004c1.214-1.222 2.314-2.56 3.279-3.997l0.061-0.097c0.97-1.482 1.804-3.044 2.478-4.66s1.186-3.31 1.536-5.034c0.35-1.75 0.51-3.504 0.51-5.28 0-0.015 0-0.033 0-0.051 0-3.695-0.752-7.214-2.112-10.413l0.066 0.174c-0.758-1.794-1.587-3.326-2.544-4.766l0.066 0.106c-1.027-1.533-2.126-2.872-3.341-4.095l0.001 0.001c-4.892-4.862-11.629-7.872-19.069-7.89h-0.003zM646.982-30.108c-1.748 0-3.528 0.186-5.25 0.536-1.923 0.392-3.609 0.922-5.215 1.603l0.177-0.067c-1.789 0.741-3.321 1.571-4.754 2.538l0.094-0.060c-1.536 1.018-2.876 2.118-4.093 3.339l-0.001 0.001c-5.010 5.038-7.896 11.958-7.896 19.044 0 1.776 0.188 3.528 0.538 5.28 0.35 1.724 0.862 3.422 1.536 5.034 0.674 1.618 1.508 3.182 2.478 4.66 1.027 1.533 2.126 2.872 3.341 4.095l-0.001-0.001c1.24 1.24 2.612 2.344 4.094 3.34 1.339 0.907 2.871 1.737 4.485 2.413l0.175 0.065c1.429 0.614 3.115 1.144 4.863 1.506l0.175 0.030c8.726 1.778 18.046-1.104 24.298-7.354 1.24-1.24 2.37-2.638 3.368-4.094 0.97-1.482 1.804-3.044 2.478-4.66s1.186-3.31 1.536-5.034c0.35-1.75 0.51-3.504 0.51-5.28 0-7.088-2.88-14.008-7.892-19.044-1.218-1.222-2.558-2.322-3.999-3.281l-0.095-0.059c-1.454-0.97-3.018-1.804-4.636-2.478-1.64-0.674-3.338-1.186-5.038-1.536-1.744-0.35-3.498-0.536-5.276-0.536z" />
<glyph unicode="&#xe914;" d="M997.066 422.042c-371.906 0-283.316 336.998-523.724 336.998-103.92 0-164.032-97.108-179.736-206.876l-54.816-35.512c-9.002-5.826-8.534-14.56 1.042-19.392l51.036-25.764c0.62-8.54 1.506-17.038 2.692-25.45 19.366-137.654 88.752-255.236 212.27-294.204 73.364-23.144 133.266-7.76 133.842-7.648 170.648 33.358 357.394 277.848 357.394 277.848z" />
<glyph unicode="&#xe915;" d="M1021.21 433.984c-4.502 8.957-13.619 14.995-24.146 14.996v0c-191.216 0-249.364 93.124-305.596 183.18-47.216 75.62-96.044 153.816-218.124 153.816-56.832 0-106.662-25.082-144.098-72.526-29.696-37.638-50.454-87.644-60.376-145.212l-44.722-28.974c-12.426-8.046-19.416-20.804-18.702-34.124 0.716-13.32 9.034-25.256 22.248-31.926l37.708-19.034c0.44-4.008 0.934-7.976 1.484-11.884 22.724-161.506 106.598-276.598 230.152-315.91v-49.166c0-14.874 12.062-26.938 26.938-26.938s26.938 12.062 26.938 26.938v37.3c11.465-1.534 24.726-2.414 38.191-2.422h0.009c11.852 0 22.272 0.706 30.94 1.64v-36.524c0-14.874 12.062-26.938 26.938-26.938s26.938 12.062 26.938 26.938v48.010c169.298 53.102 337.092 270.71 344.542 280.466 3.45 4.482 5.529 10.174 5.529 16.352 0 4.35-1.031 8.459-2.862 12.097l0.071-0.155zM654.918 175.684c-2.364 0.755-5.083 1.19-7.903 1.19-0.009 0-0.017 0-0.026 0h0.001c-0.005 0-0.010 0-0.015 0-7.252 0-13.832-2.877-18.66-7.553l0.007 0.007c-12.524-2.346-45.608-6.796-87.082 1.272-4.626 3.902-10.654 6.273-17.236 6.273-2.056 0-4.057-0.231-5.98-0.669l0.18 0.034c-1.42 0.42-2.84 0.838-4.272 1.29-103.34 32.606-173.942 131.844-193.7 272.264-0.929 6.126-1.817 14.255-2.427 22.46l-0.071 1.186c-0.72 9.671-6.448 17.857-14.575 22.031l-0.151 0.071-26.56 13.41 31.806 20.604c6.397 4.187 10.859 10.878 12.002 18.648l0.018 0.146c12.71 88.832 59.594 183.752 153.070 183.752 92.204 0 127.606-56.696 172.428-128.474 52.894-84.714 117.574-188.316 296.204-205.918-56.5-65.136-175.154-188.818-287.058-222.024z" />
<glyph unicode="&#xe916;" d="M755.844 407.672c-151.244-36.762-146.008 98.672-243.774 74.91-42.262-10.272-57.834-52.716-54.194-95.532 0 0 4.824-27.672 9.676-39.894 19.872-50.050 59.414-87.17 113.206-89.61 31.95-1.45 54.904 10.256 55.13 10.354 66.35 29.408 119.956 139.772 119.956 139.772z" />
<glyph unicode="&#xe917;" d="M586.214 230.486c-2.19 0-4.412 0.052-6.676 0.154-60.388 2.736-111.614 42.58-137.020 106.576-5.594 14.088-10.292 40.132-11.176 45.21-0.118 0.628-0.225 1.429-0.295 2.241l-0.007 0.099c-5.36 62.994 23.95 111.662 74.668 123.988 57.484 13.97 90.372-15.956 116.802-40.006 30.61-27.85 57.038-51.896 126.978-34.906 1.908 0.483 4.099 0.76 6.354 0.76 14.879 0 26.94-12.061 26.94-26.94 0-4.28-0.998-8.328-2.775-11.922l0.070 0.158c-5.916-12.178-59.812-119.74-132.84-152.434-5.66-2.708-29.188-12.978-61.024-12.978zM484.63 390.474c1.878-10.482 5.43-27.004 7.96-33.378 17.626-44.39 50.206-70.864 89.392-72.64 23.92-1.12 41.262 7.246 41.99 7.602 0.364 0.176 0.794 0.38 1.166 0.538 29.826 13.218 59.37 49.77 80.42 81.82-60.154 0.654-93.46 30.97-119.304 54.482-26.456 24.074-39.348 34.418-67.82 27.506-34.89-8.478-34.894-51.186-33.804-65.93zM445.492 553.33c-1.778 0-3.554 0.186-5.28 0.536-1.914 0.377-3.601 0.908-5.202 1.599l0.164-0.063c-1.789 0.733-3.321 1.555-4.755 2.513l0.097-0.061c-1.533 1.037-2.873 2.145-4.098 3.368v0c-4.86 4.883-7.871 11.61-7.892 19.040v0.004c0 1.748 0.188 3.528 0.538 5.25 0.753 3.675 2.148 6.929 4.074 9.796l-0.062-0.098c0.968 1.482 2.098 2.856 3.338 4.094s2.616 2.37 4.098 3.34c1.338 0.906 2.87 1.737 4.483 2.413l0.175 0.065c1.429 0.613 3.114 1.143 4.862 1.505l0.176 0.031c3.474 0.7 7.058 0.7 10.532 0 1.724-0.35 3.424-0.862 5.038-1.536s3.178-1.508 4.658-2.478c1.532-1.036 2.872-2.135 4.102-3.344l-0.004 0.004c1.24-1.24 2.344-2.612 3.34-4.094 0.968-1.454 1.804-3.016 2.478-4.66 0.674-1.616 1.182-3.31 1.532-5.038 0.323-1.57 0.509-3.374 0.509-5.222 0-7.441-3.003-14.181-7.864-19.073l0.001 0.001c-1.266-1.24-2.64-2.37-4.098-3.368-1.333-0.881-2.864-1.703-4.47-2.382l-0.188-0.070c-1.614-0.674-3.314-1.212-5.038-1.536-1.573-0.334-3.384-0.529-5.238-0.536h-0.006z" />
<glyph unicode="&#xe918;" glyph-name="Ddianying" d="M865.542 502.736l59.145 255.574c-27.645-6.468-55.157-8.145-82.606-6.383l-72.157-93.547-6.616 107.172c-217.967 58.604-432.419 264.944-662.277-7.242 18.127-94.195 66.853-403.229 95.344-489.139 31.598-95.336 77.567-177.527 139.094-241.681l10.272-10.738 14.802-2.056c27.335-3.819 54.523-6.637 81.633-8.441 70.538-5.313 134.769-2.551 211.831 8.229l14.801 2.058 10.273 10.723c61.526 64.167 107.497 146.343 139.102 241.694 23.617 71.229 39.243 149.868 47.359 233.777zM633.823 420.152h63.245c14.732 0 28.132-6.046 37.855-15.74l0.056-0.056c9.708-9.722 15.753-23.136 15.753-37.861v-23.038c0-14.766-6.046-28.181-15.753-37.903h-0.056c-9.724-9.695-23.123-15.739-37.855-15.739h-63.245c-14.766 0-28.195 6.044-37.903 15.739l0.027 0.027c-9.744 9.751-15.788 23.18-15.788 37.875v23.038c0 14.71 6.044 28.139 15.788 37.875l-0.027 0.029c9.708 9.708 23.136 15.754 37.903 15.754zM697.068 389.645c6.376 0 12.182-2.607 16.367-6.792 4.179-4.184 6.784-9.976 6.784-16.359v-23.038c0-6.34-2.613-12.117-6.805-16.316l0.020-0.029c-4.184-4.184-9.983-6.792-16.367-6.792h-63.245c-6.347 0-12.139 2.62-16.338 6.82h-0.056c-4.17 4.166-6.75 9.924-6.75 16.284 0 0.011 0 0.023 0 0.034v-0.002 23.038c0 0.010 0 0.022 0 0.034 0 6.364 2.58 12.125 6.75 16.296v0h0.056c4.206 4.2 9.991 6.82 16.338 6.82l63.246 0.002zM316.814 418.701h80.746c26.963 0 49.014-22.066 49.014-49.022v-29.393c0-26.969-22.051-49.022-49.014-49.022h-80.746c-26.954 0-49.013 22.053-49.013 49.022v29.393c0 26.956 22.058 49.022 49.013 49.022zM249.137 463.155c-3.023 22.897-5.305 45.583-6.975 67.818 106.947-56.488 235.876-45.738 339.71-17.161-14.719-17.050-30.077-33.31-47.486-47.711l3.847-2.945-289.096-0.001zM601.676 463.155c43.083 17.007 90.392 45.781 107.208 83.796 13.928 2.832 50.176-20.966 63.942-19.388-1.281-20.714-3.388-42.301-6.369-64.408h-164.781zM709.321 246.753c-22.158-52.883-50.388-101.607-85.347-140.694-33.198-4.157-63.069-6.523-93.743-7.102v0.225c-14.007-0.24-28.070-0.211-42.061 0.113-12.449 0.395-25.299 1.072-38.77 2.001h-6.714c-17.74 1.185-35.177 2.847-52.052 4.961-36.444 40.75-64.583 88.799-86.17 140.497h153.276l37.489 65.845h34.388l37.487-65.845 142.217-0.001zM512.419 432.636h263.571v-155.377h-191.244l-37.482 65.86h-69.678l-37.495-65.86h-191.235v155.377h263.563z" />
</font>
</defs>
</svg>
